<?xml version="1.0" encoding="UTF-8"?>
<svg id="Capa_2" data-name="Capa 2" xmlns="http://www.w3.org/2000/svg" xmlns:xlink="http://www.w3.org/1999/xlink" viewBox="0 0 6875.11 3772.78">
  <defs>
    <style>
      .cls-1 {
        fill: url(#Degradado_sin_nombre_6);
      }

      .cls-2 {
        fill: url(#Degradado_sin_nombre_34-11);
      }

      .cls-3 {
        fill: url(#Degradado_sin_nombre_5);
      }

      .cls-4 {
        fill: url(#Degradado_sin_nombre_34);
      }

      .cls-5 {
        fill: url(#Degradado_sin_nombre_34-16);
      }

      .cls-6 {
        fill: url(#Degradado_sin_nombre_34-17);
      }

      .cls-7 {
        fill: url(#Degradado_sin_nombre_34-9);
      }

      .cls-8 {
        fill: url(#Degradado_sin_nombre_34-10);
      }

      .cls-9 {
        fill: url(#Degradado_sin_nombre_34-6);
      }

      .cls-10 {
        fill: url(#Degradado_sin_nombre_21-2);
      }

      .cls-11 {
        fill: url(#Degradado_sin_nombre_34-15);
      }

      .cls-12 {
        fill: url(#Degradado_sin_nombre_34-14);
      }

      .cls-13 {
        fill: url(#Degradado_sin_nombre_4);
      }

      .cls-14 {
        fill: url(#Degradado_sin_nombre_34-19);
      }

      .cls-15 {
        fill: url(#Degradado_sin_nombre_34-4);
      }

      .cls-16 {
        fill: url(#Degradado_sin_nombre_17);
      }

      .cls-17 {
        fill: url(#Degradado_sin_nombre_22-2);
      }

      .cls-18 {
        fill: url(#Degradado_sin_nombre_23);
      }

      .cls-19 {
        fill: url(#Degradado_sin_nombre_21);
      }

      .cls-20 {
        fill: url(#Degradado_sin_nombre_34-3);
      }

      .cls-21 {
        fill: url(#Degradado_sin_nombre_22);
      }

      .cls-22 {
        fill: url(#Degradado_sin_nombre_34-8);
      }

      .cls-23 {
        fill: url(#Degradado_sin_nombre_14);
      }

      .cls-24 {
        fill: url(#Degradado_sin_nombre_34-13);
      }

      .cls-25 {
        fill: url(#Degradado_sin_nombre_34-5);
      }

      .cls-26 {
        fill: url(#Degradado_sin_nombre_34-12);
      }

      .cls-27 {
        fill: url(#Degradado_sin_nombre_34-18);
      }

      .cls-28 {
        fill: url(#Degradado_sin_nombre_34-2);
      }

      .cls-29 {
        fill: url(#Degradado_sin_nombre_17-2);
      }

      .cls-30 {
        fill: url(#Degradado_sin_nombre_34-7);
      }

      .cls-31 {
        fill: url(#Degradado_sin_nombre_12);
      }
    </style>
    <linearGradient id="Degradado_sin_nombre_4" data-name="Degradado sin nombre 4" x1="47.14" y1="10025.16" x2="6875.11" y2="10025.16" gradientTransform="translate(0 11911.55) scale(1 -1)" gradientUnits="userSpaceOnUse">
      <stop offset="0" stop-color="#aa9267"/>
      <stop offset="0" stop-color="#c3b088"/>
      <stop offset=".2" stop-color="#e0d2ae"/>
      <stop offset=".2" stop-color="#ece0bd"/>
      <stop offset=".2" stop-color="#eee3c0"/>
      <stop offset=".2" stop-color="#f3e9c7"/>
      <stop offset=".3" stop-color="#f5ebc9"/>
      <stop offset=".6" stop-color="#b5a17b"/>
      <stop offset=".8" stop-color="#f5f7f5"/>
      <stop offset="1" stop-color="#f6f7e9"/>
    </linearGradient>
    <linearGradient id="Degradado_sin_nombre_5" data-name="Degradado sin nombre 5" x1="408.34" y1="9169.33" x2="1947.5" y2="10678.61" gradientTransform="translate(0 11911.55) scale(1 -1)" gradientUnits="userSpaceOnUse">
      <stop offset="0" stop-color="#aa9267"/>
      <stop offset=".2" stop-color="#bdac8c"/>
      <stop offset=".4" stop-color="#cfc4ad"/>
      <stop offset=".5" stop-color="#dbd5c4"/>
      <stop offset=".7" stop-color="#e3dfd3"/>
      <stop offset=".8" stop-color="#e6e3d8"/>
    </linearGradient>
    <linearGradient id="Degradado_sin_nombre_6" data-name="Degradado sin nombre 6" x1="1111.4" y1="9558.66" x2="1250.2" y2="10598.66" gradientTransform="translate(0 11911.55) scale(1 -1)" gradientUnits="userSpaceOnUse">
      <stop offset="0" stop-color="#cfc5a3"/>
      <stop offset=".4" stop-color="#dad3bc"/>
      <stop offset=".7" stop-color="#e2ded0"/>
      <stop offset="1" stop-color="#e6e3d8"/>
    </linearGradient>
    <linearGradient id="Degradado_sin_nombre_17" data-name="Degradado sin nombre 17" x1="2894.38" y1="9947.56" x2="3164.22" y2="9785.77" gradientTransform="translate(0 11911.55) scale(1 -1)" gradientUnits="userSpaceOnUse">
      <stop offset="0" stop-color="#aa9267"/>
      <stop offset=".4" stop-color="#ab9369"/>
      <stop offset=".6" stop-color="#ae9870"/>
      <stop offset=".7" stop-color="#b5a17c"/>
      <stop offset=".8" stop-color="#beae8e"/>
      <stop offset=".9" stop-color="#cabea4"/>
      <stop offset=".9" stop-color="#d9d2c0"/>
      <stop offset="1" stop-color="#e6e3d8"/>
    </linearGradient>
    <linearGradient id="Degradado_sin_nombre_34" data-name="Degradado sin nombre 34" x1="4520.43" y1="9934.92" x2="4810.1" y2="9810.21" gradientTransform="translate(0 11911.55) scale(1 -1)" gradientUnits="userSpaceOnUse">
      <stop offset="0" stop-color="#ebeae3"/>
      <stop offset="0" stop-color="#ecece6"/>
      <stop offset=".3" stop-color="#f5f7f5"/>
      <stop offset=".6" stop-color="#f5f7ee"/>
      <stop offset=".8" stop-color="#f6f7e9"/>
    </linearGradient>
    <linearGradient id="Degradado_sin_nombre_34-2" data-name="Degradado sin nombre 34" x1="4851.52" y1="9878" x2="5170.47" y2="9878" xlink:href="#Degradado_sin_nombre_34"/>
    <linearGradient id="Degradado_sin_nombre_21" data-name="Degradado sin nombre 21" x1="2260.9" y1="9910.43" x2="2452.58" y2="9785.14" gradientTransform="translate(0 11911.55) scale(1 -1)" gradientUnits="userSpaceOnUse">
      <stop offset="0" stop-color="#aa9267"/>
      <stop offset=".5" stop-color="#ab9368"/>
      <stop offset=".5" stop-color="#ac946a"/>
      <stop offset=".8" stop-color="#ac946a"/>
      <stop offset=".9" stop-color="#ac946a"/>
      <stop offset=".9" stop-color="#ac946a" stop-opacity=".9"/>
      <stop offset="1" stop-color="#ac946a"/>
      <stop offset="1" stop-color="#ac946a"/>
    </linearGradient>
    <linearGradient id="Degradado_sin_nombre_22" data-name="Degradado sin nombre 22" x1="2580.13" y1="9967.93" x2="2814.05" y2="9757.29" gradientTransform="translate(0 11911.55) scale(1 -1)" gradientUnits="userSpaceOnUse">
      <stop offset="0" stop-color="#aa9267"/>
      <stop offset=".5" stop-color="#ac946a"/>
      <stop offset="1" stop-color="#ac946a"/>
      <stop offset="1" stop-color="#ac946a"/>
    </linearGradient>
    <linearGradient id="Degradado_sin_nombre_12" data-name="Degradado sin nombre 12" x1="3243.13" y1="9946.82" x2="3529.07" y2="9792.78" gradientTransform="translate(0 11911.55) scale(1 -1)" gradientUnits="userSpaceOnUse">
      <stop offset="0" stop-color="#aa9267"/>
      <stop offset="0" stop-color="#ac966c"/>
      <stop offset=".1" stop-color="#bead8d"/>
      <stop offset=".3" stop-color="#ccc1a8"/>
      <stop offset=".4" stop-color="#d8d0bd"/>
      <stop offset=".5" stop-color="#dfdacc"/>
      <stop offset=".7" stop-color="#e4e1d5"/>
      <stop offset="1" stop-color="#e6e3d8"/>
    </linearGradient>
    <linearGradient id="Degradado_sin_nombre_34-3" data-name="Degradado sin nombre 34" x1="5204.91" y1="9877.88" x2="5433.95" y2="9877.88" xlink:href="#Degradado_sin_nombre_34"/>
    <linearGradient id="Degradado_sin_nombre_14" data-name="Degradado sin nombre 14" x1="3600.71" y1="9971.76" x2="3876.59" y2="9799.05" gradientTransform="translate(0 11911.55) scale(1 -1)" gradientUnits="userSpaceOnUse">
      <stop offset="0" stop-color="#ebdfb4" stop-opacity=".8"/>
      <stop offset="0" stop-color="#ebdfb6" stop-opacity=".8"/>
      <stop offset="0" stop-color="#ebe1bf" stop-opacity=".8"/>
      <stop offset=".1" stop-color="#ebe4cd" stop-opacity=".9"/>
      <stop offset=".2" stop-color="#ebe9e0"/>
      <stop offset=".2" stop-color="#ebeae3"/>
      <stop offset=".3" stop-color="#f3f4f1"/>
      <stop offset=".5" stop-color="#f5f7f5"/>
      <stop offset=".7" stop-color="#f5f7ee"/>
      <stop offset=".8" stop-color="#f6f7e9"/>
    </linearGradient>
    <linearGradient id="Degradado_sin_nombre_34-4" data-name="Degradado sin nombre 34" x1="4083.58" y1="9760.7" x2="3732.99" y2="9443.44" xlink:href="#Degradado_sin_nombre_34"/>
    <linearGradient id="Degradado_sin_nombre_34-5" data-name="Degradado sin nombre 34" x1="5463.26" y1="9878" x2="5778.22" y2="9878" xlink:href="#Degradado_sin_nombre_34"/>
    <linearGradient id="Degradado_sin_nombre_17-2" data-name="Degradado sin nombre 17" x1="2614.59" y1="9423.44" x2="2766.61" y2="9373.15" xlink:href="#Degradado_sin_nombre_17"/>
    <linearGradient id="Degradado_sin_nombre_34-6" data-name="Degradado sin nombre 34" x1="3848.52" y1="9399.61" x2="4008.59" y2="9399.61" xlink:href="#Degradado_sin_nombre_34"/>
    <linearGradient id="Degradado_sin_nombre_34-7" data-name="Degradado sin nombre 34" x1="4676.44" y1="9399.61" x2="4836.5" y2="9399.61" xlink:href="#Degradado_sin_nombre_34"/>
    <linearGradient id="Degradado_sin_nombre_34-8" data-name="Degradado sin nombre 34" x1="5599.14" y1="9399.61" x2="5759.21" y2="9399.61" xlink:href="#Degradado_sin_nombre_34"/>
    <linearGradient id="Degradado_sin_nombre_21-2" data-name="Degradado sin nombre 21" x1="2297.46" y1="9412.89" x2="2363.85" y2="9325.24" xlink:href="#Degradado_sin_nombre_21"/>
    <linearGradient id="Degradado_sin_nombre_22-2" data-name="Degradado sin nombre 22" x1="2456.15" y1="9442.53" x2="2564.49" y2="9324.99" xlink:href="#Degradado_sin_nombre_22"/>
    <linearGradient id="Degradado_sin_nombre_23" data-name="Degradado sin nombre 23" x1="2823.61" y1="9435.42" x2="2969.3" y2="9351.8" gradientTransform="translate(0 11911.55) scale(1 -1)" gradientUnits="userSpaceOnUse">
      <stop offset="0" stop-color="#aa9267"/>
      <stop offset="1" stop-color="#e6e3d8"/>
    </linearGradient>
    <linearGradient id="Degradado_sin_nombre_34-9" data-name="Degradado sin nombre 34" x1="3063.37" y1="9399.47" x2="3376.94" y2="9399.47" xlink:href="#Degradado_sin_nombre_34"/>
    <linearGradient id="Degradado_sin_nombre_34-10" data-name="Degradado sin nombre 34" x1="3399.64" y1="9399.47" x2="3455.39" y2="9399.47" xlink:href="#Degradado_sin_nombre_34"/>
    <linearGradient id="Degradado_sin_nombre_34-11" data-name="Degradado sin nombre 34" x1="3479.53" y1="9399.61" x2="3624.37" y2="9399.61" xlink:href="#Degradado_sin_nombre_34"/>
    <linearGradient id="Degradado_sin_nombre_34-12" data-name="Degradado sin nombre 34" x1="3646.78" y1="9399.18" x2="3806.85" y2="9399.18" xlink:href="#Degradado_sin_nombre_34"/>
    <linearGradient id="Degradado_sin_nombre_34-13" data-name="Degradado sin nombre 34" x1="4047.67" y1="9397.88" x2="4207.45" y2="9397.88" xlink:href="#Degradado_sin_nombre_34"/>
    <linearGradient id="Degradado_sin_nombre_34-14" data-name="Degradado sin nombre 34" x1="4227.85" y1="9399.61" x2="4372.69" y2="9399.61" xlink:href="#Degradado_sin_nombre_34"/>
    <linearGradient id="Degradado_sin_nombre_34-15" data-name="Degradado sin nombre 34" x1="4480.45" y1="9399.75" x2="4640.37" y2="9399.75" xlink:href="#Degradado_sin_nombre_34"/>
    <linearGradient id="Degradado_sin_nombre_34-16" data-name="Degradado sin nombre 34" x1="4878.46" y1="9398.89" x2="5035.65" y2="9398.89" xlink:href="#Degradado_sin_nombre_34"/>
    <linearGradient id="Degradado_sin_nombre_34-17" data-name="Degradado sin nombre 34" x1="5071.29" y1="9399.32" x2="5231.64" y2="9399.32" xlink:href="#Degradado_sin_nombre_34"/>
    <linearGradient id="Degradado_sin_nombre_34-18" data-name="Degradado sin nombre 34" x1="5274.17" y1="9399.04" x2="5380.21" y2="9399.04" xlink:href="#Degradado_sin_nombre_34"/>
    <linearGradient id="Degradado_sin_nombre_34-19" data-name="Degradado sin nombre 34" x1="5416.42" y1="9399.18" x2="5573.9" y2="9399.18" xlink:href="#Degradado_sin_nombre_34"/>
  </defs>
  <g id="Capa_1-2" data-name="Capa 1">
    <path class="cls-13" d="M3923.52,3772.78h-64.66c-62.07-.86-108.63-2.01-139.66-2.87-286.51-8.33-572.16-38.51-857.23-90.23-204.61-37.07-402.9-85.06-595.15-143.69-109.2-33.34-221.85-70.69-338.24-112.65-1.44-.57-2.3-1.72-2.3-3.16v-1.44c0-1.15.86-2.3,2.3-2.3h.57c305.76,69.26,611.24,113.8,916.14,133.63,419.28,27.59,836.25,7.47,1250.93-60.35,117.82-19.25,236.79-42.24,353.47-72.42,92.53-23.85,183.34-50.86,272.43-81.04,111.21-37.65,208.63-74.72,292.26-111.5,214.38-93.97,414.1-216.68,586.81-373.87,79.89-72.71,149.43-152.88,209.21-240.53,65.52-95.98,112.08-198.29,140.24-306.91,54.6-211.79,32.47-433.36-50.86-634.8-24.14-58.34-55.75-118.68-94.55-180.76-86.21-137.94-191.96-259.21-316.97-363.81-173.57-145.12-362.38-267.83-566.98-367.55-189.38-92.53-382.78-163.23-589.69-220.7-364.39-101.44-739.41-157.77-1125.06-169.26-380.48-11.49-757.22,16.96-1127.36,89.37-389.68,76.15-763.83,201.45-1122.19,375.59-147.71,71.84-284.21,151.16-409.22,238.23-130.47,90.52-257.49,193.98-380.77,309.79-36.5,34.2-70.69,75.58-102.88,108.91-3.16,3.45-7.47,7.18-12.36,10.92-1.15.86-3.16.86-4.02-.57-.57-.86-.86-2.01-.29-2.87,4.02-8.91,10.06-18.97,17.53-29.6,120.12-171.56,257.2-326.45,411.8-464.68,125.01-111.79,260.65-213.52,406.63-305.19,315.25-197.71,664.98-351.17,1021.03-458.93,125.29-37.93,252.6-71.56,381.63-101.44C2720.01,36.37,3158.83-8.46,3603.1,1.31c326.74,7.18,653.48,42.82,972.18,105.47,240.82,47.42,477.04,114.95,708.66,202.6,183.92,69.54,361.23,154.03,531.93,254.04,487.96,285.36,935.4,717.85,1039.14,1296.33,10.92,61.5,17.53,122.71,19.54,183.34,4.6,146.56-18.68,287.08-69.83,421.57-27.59,72.71-65.23,147.71-112.94,225.3-43.68,70.98-94.55,137.94-152.31,200.59-251.45,272.72-581.35,468.7-928.79,598.02-178.17,66.1-358.07,119.55-539.97,160.35-326.45,72.99-669.58,110.64-1006.38,120.7-27.88.86-74.72,1.72-141.1,2.87l.29.29Z"/>
    <path class="cls-3" d="M1674.26,1341.61c104.6,47.7,193.69,116.96,267.54,207.77,39.08,47.99,70.98,93.97,95.69,138.51,47.99,85.64,81.33,174.15,99.72,265.24,6.32,30.75,11.21,66.38,14.94,106.33,3.16,35.35,4.02,70.98,2.3,107.19-7.18,156.04-51.15,301.74-131.33,437.67-110.64,186.79-283.35,337.37-480.77,424.74-150.58,66.96-307.78,99.72-471.29,98.28-85.06-.86-172.42-12.36-261.8-35.35-320.42-81.61-597.16-305.76-726.76-612.1-63.51-150.3-90.52-307.49-80.46-472.44,6.61-109.49,30.46-214.95,71.84-315.82,79.6-194.84,223.58-365.82,403.76-476.46,46.84-28.74,94.55-53.74,143.4-75,66.96-29.02,139.95-49.14,210.36-66.38,26.73-6.61,47.42-12.36,62.36-17.24,60.06-19.83,120.41-37.07,181.33-43.11,32.47-3.16,81.04-.86,104.32-.29,28.16.29,49.43,3.74,81.33,9.48,53.45,9.48,102.59,25.58,147.42,47.99,21.84,10.92,50.86,29.89,74.14,39.37,27.88,11.21,57.76,18.68,87.36,24.71,26.44,5.46,52.59,15.52,77.3,26.44,20.69,9.2,36.78,15.52,50.29,29.02,12.93,13.22,20.12,29.6,20.69,49.72,1.72,39.37-11.78,76.15-43.39,99.43-.57.57-.86,1.44-.29,2.01,0,0,.29.29.57.57l-.58-.29ZM1582.88,1380.98c13.22-7.76,22.99-20.12,29.31-37.65.86-2.59-.29-5.17-2.87-6.03h-1.15l-8.62-.86c-3.45-.29-6.32,2.01-6.9,5.46-1.72,12.07-5.75,24.71-11.49,37.93,0,.57,0,1.15.57,1.44h1.15v-.29ZM1534.03,1489.03c-1.72,31.9-21.84,55.18-35.92,77.02-2.01,3.45-5.46,11.21-10.06,23.85-4.6,13.22-14.08,24.14-28.16,33.05-36.5,22.7-85.06,19.25-118.11-7.76-7.76-6.32-17.53-17.53-29.02-34.2-37.65-52.88-82.76-96.27-139.95-127.02-19.25-10.35-44.26-22.7-74.72-36.5-33.62-15.23-64.66-24.14-93.68-26.44-33.62-2.87-65.52-1.72-96.27,3.16-131.33,21.27-250.01,89.66-337.37,190.81-34.48,39.94-63.51,80.75-87.65,122.13-41.09,70.98-63.8,143.69-78.45,222.71-7.47,40.81-10.63,83.34-9.2,127.31,6.32,199.44,102.88,387.09,260.07,510.08,73.28,57.19,152.88,99.72,239.09,127.02,14.08,4.6,33.91,9.77,58.91,15.81,29.89,7.18,49.72,11.49,59.77,12.93,28.45,4.31,62.07,7.76,100.87,9.77,56.04,2.87,112.94-2.87,168.11-11.78,148.28-24.14,285.36-92.82,396.29-193.98,40.23-36.5,74.43-75.87,102.88-117.82,21.84-32.19,43.11-70.41,63.51-114.66,32.47-70.41,52.88-140.52,60.92-210.36,1.44-13.79,2.87-27.59,4.31-41.38,2.01-20.12,2.59-33.91,2.3-41.67-1.72-39.37-1.15-72.99-6.03-107.19-13.79-95.12-38.51-183.06-82.19-267.54-50-96.84-112.36-176.73-199.72-238.81-2.3-1.72-5.46-1.15-7.18,1.15h0c-20.12,32.76-49.14,53.16-86.79,61.5-2.3.57-4.6-.86-5.17-3.16v-2.3c9.48-27.87,15.23-54.89,17.53-81.04.57-7.47-1.44-11.78-9.77-11.78-37.07.29-82.19,8.62-104.6,39.37-18.39,25.29-3.16,72.71,12.64,93.68,9.48,12.36,18.39,16.38,34.48,14.66,17.53-1.72,34.2-7.18,49.72-16.09,2.59-1.44,5.75-.57,7.18,2.01.57.86.86,2.01.57,2.87l.86.57Z"/>
    <path class="cls-1" d="M1669.95,2097.4c0,279.04-234.78,505.49-524.45,505.49s-524.45-226.16-524.45-505.49,234.78-505.49,524.45-505.49,524.45,226.16,524.45,505.49ZM1144.93,1731.86c25,0,45.12,0,67.25,3.16.57,0,.86,0,.86-.86v-.29c-7.76-25.58-35.35-98.28-68.68-97.99-33.05,0-60.35,72.99-67.82,98.57,0,.57,0,.86.57,1.15h.29c22.13-3.16,42.24-3.74,67.25-3.74h.29ZM1223.67,1650.83c16.67,28.74,29.6,58.62,38.8,89.66,0,.57.86,1.15,1.44,1.44,39.37,6.32,77.88,15.81,115.52,28.45.57,0,.86,0,1.15-.57v-.86c-39.94-55.46-91.67-95.41-155.76-119.55-.57,0-.86,0-1.15.57v.86ZM1064.17,1651.97c0-.29,0-.86-.29-1.15h-.57c-62.93,24.14-114.09,63.8-152.88,118.68v1.15h.57c37.07-12.93,75-22.42,113.8-28.74.57,0,1.15-.57,1.44-1.15,8.91-30.75,21.55-60.35,37.65-88.8h.29ZM838.59,1801.41c.57-.57.86-.86,1.15-.86,22.13-40.23,49.72-76.73,82.19-109.49v-.57h-.57c-41.67,21.27-79.31,47.99-112.65,80.18-33.34,32.19-61.5,68.68-84.49,109.49v.57h.57c33.91-31.32,71.56-57.19,112.65-77.88,0,0,.29-.29,1.15-.86v-.57ZM1453.56,1802.84c.57.57.86.86,1.15.86,41.38,20.69,79.03,46.55,112.94,78.16h.57v-.29c-22.99-41.09-51.15-77.59-84.77-109.78-33.62-32.19-71.27-58.91-112.94-80.18h-.57v.57c32.76,32.76,60.35,69.26,82.48,109.78,0,0,.29.29.86.86h.29ZM1242.63,1847.96l-14.66-66.67c0-.57-.57-.86-1.15-.86l-38.51-3.45h-.29v.29h0c31.9,7.47,25.86,36.78,26.15,62.07,0,.57.29.86.86,1.15l27.01,7.76s.57,0,.57-.29h0ZM1094.92,1777.56l-28.74,3.16c-.57,0-1.44.57-1.44,1.15l-14.94,68.11s0,.57.29.57h0l25.29-7.76c.29,0,.57-.29.57-.57,2.3-20.12-8.05-50,19.25-63.51,0,0,.29-.57,0-.86,0,0-.29-.29-.57,0l.29-.29ZM825.37,1969.81c0,.57.29,1.44,1.15,1.44h.57c39.08-8.33,78.74-14.66,118.68-19.25.86,0,1.72-.86,2.01-1.72,9.48-28.16,25.86-51.44,48.85-69.83.57-.29.86-.86.86-1.44l17.82-88.8c0-.86-.29-1.44-1.15-1.72h-.57c-49.43,8.62-96.56,23.56-141.39,44.26-1.44.57-2.59,1.72-3.16,3.16-20.4,42.82-34.77,87.65-43.39,134.2l-.29-.29ZM1466.49,1969.81c-9.48-47.7-25-93.11-45.98-136.5-.57-1.15-1.72-2.3-2.87-2.59-44.83-19.83-91.38-33.91-139.95-42.24-.57,0-.86,0-1.15.57v.29l16.09,81.9c0,.86.57,1.44,1.44,1.72,11.49,6.32,22.99,14.66,35.06,24.43,16.38,13.79,31.32,31.04,20.4,52.59-.29.57,0,1.44.57,1.72h.57c38.8,4.89,77.02,11.21,114.37,18.97.57,0,1.44-.29,1.44-.86v-.57.57ZM1094.92,2384.2c-.29,17.24,0,33.62,0,49.14,0,9.48,4.89,14.08,13.51,14.37,9.48.29,33.62.29,72.42,0,11.49,0,14.94-7.18,14.94-18.1v-44.54c0-1.44.86-2.59,2.3-2.87,96.27-16.67,171.85-87.94,154.89-192.25-6.61-41.67-36.5-73.85-72.99-93.68-35.92-19.54-76.15-32.76-115.52-45.12-24.14-7.47-66.38-19.54-66.1-49.43,0-16.67,11.21-26.44,26.73-31.04,45.98-14.37,84.49,7.47,117.54,36.21,9.2,8.05,19.25,10.35,27.59,1.72,18.1-18.97,37.65-39.08,58.62-60.35,12.07-12.36,3.16-24.43-7.18-33.62-35.63-31.04-77.02-50.86-123.86-59.2-.86,0-1.72-1.15-1.72-2.01-.29-16.38-.29-29.6,0-39.66.57-12.36-5.75-20.4-17.82-20.69h-68.68c-5.46,0-9.77,2.59-12.93,7.47-.57.86-.86,1.72-.86,2.87l-1.44,51.73c0,1.15-.86,2.3-2.01,2.3-79.6,13.51-143.97,72.13-131.33,158.92,7.76,52.59,46.55,91.96,92.53,115.24,23.28,11.78,41.96,20.12,56.04,25,17.24,6.03,34.48,12.07,51.44,18.1,15.52,5.46,47.7,21.27,50,39.94,3.16,28.74-14.94,46.55-41.67,51.44-52.3,9.48-94.55-17.53-134.2-52.01-8.91-7.76-18.1-12.64-27.01-4.6-14.94,13.51-35.92,32.47-62.65,57.19-10.35,9.48-13.22,15.52-2.87,26.73,42.24,45.4,92.25,74.72,149.72,87.36,1.44.29,2.3,1.44,2.3,2.87l.29.57ZM806.98,1871.24v-.86h-.57c-56.9,36.5-98.28,85.35-124.43,147.13,0,.57,0,1.15.57,1.15h.86c29.31-15.52,60.06-27.59,92.25-36.21,1.15,0,1.72-1.15,2.01-2.01,5.75-35.35,16.96-75.29,29.6-109.49l-.29.29ZM1484.89,1870.95c12.64,34.48,24.14,74.43,29.89,110.06,0,1.15.86,1.72,2.01,2.01,32.47,8.62,63.22,20.69,92.82,36.21.57,0,.86,0,1.15-.29v-.86c-26.15-62.07-68.11-111.5-125.29-148h-.86v.57l.29.29ZM1262.46,2066.08l-.86-31.9c0-.86-.57-1.44-1.44-1.44-11.78-.29-19.83-3.74-29.31-11.78-29.31-24.71-56.04-42.24-96.56-33.62-10.35,2.3-20.69,8.33-16.38,20.12,3.74,9.77,26.15,18.97,35.63,21.84,37.65,11.49,73.57,24.14,107.76,37.93.57,0,.86,0,1.15-.57v-.57ZM1374.54,2194.82c33.91-4.89,67.53-11.21,100.87-18.68,1.15,0,1.72-1.15,1.72-2.3,4.02-51.44,4.02-102.59,0-153.74,0-.86-.57-1.72-1.44-1.72-48.85-11.21-100.01-19.54-153.17-25.29-3.74-.29-6.9-.57-10.06,0-2.87,0-5.17,2.59-4.89,5.46h0c2.3,31.32,2.87,62.65,2.3,94.26,0,1.44.57,2.59,1.72,3.45,34.2,24.14,54.31,56.61,60.64,97.42,0,.86.86,1.44,2.01,1.44l.29-.29ZM986.3,2200.85l-2.59-95.69c0-1.44-.57-2.59-1.44-3.45-27.01-28.74-40.81-63.51-41.38-104.03,0-.57-.29-.86-.86-.86h0c-41.09,5.17-81.33,12.07-120.98,21.27-.86,0-1.44.86-1.72,1.72-6.9,51.15-6.9,102.3,0,153.74,0,1.15.86,2.01,2.01,2.3,53.74,12.36,108.91,21.27,165.53,26.44.86,0,1.44-.57,1.44-1.44h0ZM767.03,2097.11c0-18.97,1.15-40.23,2.87-63.8,0-.57-.29-.86-.86-.86h-.29c-24.14,7.18-101.73,33.34-101.73,64.66s77.3,57.47,101.44,64.95c.57,0,.86,0,1.15-.57v-.29c-1.72-23.56-2.87-44.83-2.59-63.8v-.29ZM1524.54,2097.11c0,19.25-1.15,40.52-3.16,64.66,0,.57.29.86.86.86h.29c24.43-7.18,102.59-33.34,102.88-64.95,0-31.61-77.88-58.34-102.3-65.81-.57,0-.86,0-1.15.57v.29c1.72,23.85,2.59,45.4,2.59,64.66v-.29ZM1031.41,2140.51h-.86v.29l1.15,47.42c0,1.15.57,2.3,1.44,2.87l24.43,16.67c1.15.86,2.59,1.44,4.02,1.44h121.85c.57,0,.86-.57.86-1.15,0-.29,0-.57-.29-.86-9.77-6.32-19.25-12.07-29.6-15.52-41.09-13.51-83.34-28.45-123-51.44v.29ZM806.69,2322.41c-12.64-34.2-23.85-74.14-29.31-109.78,0-1.15-.86-1.72-2.01-2.01-32.19-8.62-62.93-20.98-92.53-36.5-.57,0-.86,0-1.15.29v.86c25.86,62.07,67.25,111.21,124.14,148h.86v-.86ZM1485.75,2322.7c0,.29,0,.57.29.57h.57c56.9-36.78,98.28-86.21,124.14-148,0-.57,0-1.15-.57-1.15h-.86c-29.31,15.81-60.35,27.87-92.53,36.5-1.15,0-1.72,1.15-2.01,2.01-5.46,35.63-16.67,75.58-29.31,110.06h.29ZM944.05,2241.95c-44.26-5.46-83.34-11.49-117.54-18.68-.57,0-1.15,0-1.15.86v.29c9.77,47.13,25,91.96,45.69,134.2.57,1.44,1.72,2.3,3.16,2.87,45.12,20.69,91.67,35.35,139.38,43.97.57,0,1.15,0,1.44-.86v-.57l-6.9-34.48c0-1.15-.86-2.01-1.72-2.3-25.29-14.08-48.28-31.9-69.26-53.16-8.33-8.62-13.79-14.94-15.81-19.25-11.78-22.7,8.05-38.22,22.99-51.44.29-.29.29-.86,0-1.15,0,0-.29,0-.57-.29h.29ZM1465.06,2224.13l-90.81,15.52c-.57,0-1.15.57-1.44,1.44-7.47,49.43-31.61,89.09-72.13,118.4-2.87,2.01-8.33,5.75-16.38,10.92-.86.57-1.15,1.15-1.44,2.01l-6.9,31.9c0,.57,0,1.44.86,1.72h.57c4.02-.57,8.33-1.15,12.93-2.3,42.53-9.48,84.49-22.99,125.01-40.81,2.01-.86,3.74-2.3,4.6-4.31,20.98-42.53,36.21-87.07,45.69-133.63,0-.29,0-.57-.57-.86h0ZM838.01,2392.24c-.57-.57-.86-.86-1.15-.86-41.09-20.69-78.45-46.55-112.08-77.59h-.57v.57c22.7,40.81,50.58,77.02,83.91,109.2,33.34,31.9,70.69,58.62,112.08,79.89h.57v-.57c-32.47-32.47-59.77-68.97-81.9-109.2,0,0-.29-.29-.86-.86v-.57ZM1453.85,2392.24c-.57.57-.86.86-.86.86-22.13,40.23-49.43,76.73-82.19,109.49v.57h.57c41.67-21.27,79.03-47.99,112.36-80.18,33.34-32.19,61.5-68.39,84.2-109.2v-.57h-.57c-33.91,31.32-71.27,57.19-112.36,77.88,0,0-.29.29-1.15.86v.29ZM1063.6,2412.94c.29,1.44,1.44,2.3,2.87,2.59l7.18,1.44c1.15,0,2.3-.57,2.3-1.72v-16.67c0-1.72-1.15-3.45-2.87-3.74l-12.93-3.74c-.57,0-.86,0-1.15.57v.57l4.6,20.69h0ZM1216.77,2417.25l8.62-1.72c1.44-.29,2.87-1.44,3.16-3.16l4.02-17.82c0-.57,0-1.15-.86-1.15h-.29l-13.79,3.16c-1.72.29-3.16,2.01-3.16,4.02v14.66c0,1.15.86,2.01,2.01,2.01h.29,0ZM1065.32,2543.4c-16.09-28.45-28.74-58.34-37.65-89.09,0-.57-.86-1.15-1.44-1.44-38.8-6.32-77.02-16.09-114.09-29.02-.57,0-.86,0-1.15.57v.86c39.08,55.18,90.23,94.83,153.46,119.26.57,0,.86,0,1.15-.57v-.57h-.29ZM1224.53,2544.55v1.15h.86c63.8-24.71,115.24-64.66,154.61-120.41v-1.15h-.86c-37.65,13.22-75.87,22.99-115.24,29.31-.57,0-1.15.57-1.44,1.44-8.91,31.04-21.55,60.92-37.93,89.95v-.29ZM1145.79,2558.63c31.04,0,58.91-71.56,66.96-95.98.57-1.44-.29-2.87-1.72-3.45h-1.72l-17.82,5.17c-1.44.29-2.87.57-4.31.86-2.3.29-16.09.57-41.38.57s-39.37,0-41.67-.57c-1.44,0-2.87-.57-4.02-.86l-17.82-5.17c-1.44-.57-2.87.29-3.45,1.72v1.72c8.05,24.43,35.63,95.98,66.67,95.98h.29Z"/>
    <path class="cls-16" d="M3164.57,1992.22c-1.15,2.59-3.74,4.02-6.32,4.31-36.21,2.01-73.28,2.3-111.5.57-4.89,0-9.2-.86-12.64-1.72-.86,0-1.72-.86-2.3-2.01-1.44-2.87-2.01-6.03-2.01-9.48,0-21.55-.57-49.14-1.15-83.34,0-8.62-4.31-13.22-12.07-13.79-10.35-.57-16.95,0-19.83,2.3-.57.57-1.44,1.15-1.72,1.72-2.01,2.87-3.16,7.76-3.16,15.23-1.44,85.92-1.15,171.85,0,257.77,0,3.45.57,6.9,1.72,10.92,2.87,10.06,23.56,7.18,30.17,4.6,1.44-.57,2.59-1.72,3.16-3.45,1.15-3.45,2.01-8.62,2.01-15.52,0-10.92.86-40.23,1.44-87.94,0-6.61,3.45-10.06,10.06-10.35,39.08-2.01,78.45-1.72,117.82,0,2.59,0,5.17,1.72,6.32,4.02,1.72,2.87,2.59,7.18,2.3,12.07-1.15,77.02-4.02,136.79-8.62,179.61-1.15,9.77-3.45,21.27-7.18,34.77-7.47,27.3-29.31,33.05-54.6,36.5-62.07,8.91-124.14,8.05-185.93-2.3-20.69-3.45-35.35-13.22-41.09-33.62-3.74-12.36-6.32-26.15-8.05-41.67-2.87-25.86-4.89-52.88-6.03-81.04-4.02-91.1-4.02-182.19,0-273.58,1.72-37.93,3.74-77.59,11.49-114.95,4.31-20.12,14.08-35.35,35.35-39.94,68.39-14.66,141.67-13.79,210.36-1.44,35.06,6.32,41.96,35.63,45.12,66.67,5.75,54.31,8.62,110.64,8.05,169.26,0,5.17.29,10.63-1.72,15.23l.57.57Z"/>
    <path class="cls-4" d="M4653.45,1731.86c33.05,0,66.96,2.87,101.73,8.91,20.98,3.74,34.2,15.52,39.66,35.63,3.74,14.37,6.61,30.75,8.33,49.72,6.03,70.98,8.05,136.21,8.05,207.77s-1.72,136.79-8.05,207.77c-1.72,18.97-4.31,35.35-8.33,49.72-5.46,20.12-18.68,32.19-39.66,35.63-34.77,6.03-68.68,8.91-101.73,8.91s-66.96-2.87-101.73-8.91c-20.98-3.74-34.2-15.52-39.66-35.63-3.74-14.37-6.61-30.75-8.33-49.72-6.03-70.98-8.05-136.21-8.05-207.77s1.72-136.79,8.05-207.77c1.72-18.97,4.31-35.35,8.33-49.72,5.46-20.12,18.68-32.19,39.66-35.63,34.77-6.03,68.68-8.91,101.73-8.91ZM4633.91,2034.18c0,60.35,0,94.55,1.44,135.93.29,10.35,8.91,12.07,17.82,12.07s17.53-1.72,17.82-12.07c1.72-41.09,1.44-75.58,1.44-135.93s0-94.55-1.44-135.93c-.57-10.35-8.91-12.07-17.82-12.07s-17.53,1.72-17.82,12.07c-1.72,41.09-1.44,75.58-1.44,135.93Z"/>
    <path class="cls-28" d="M5124.74,2102.86c-.86.29-1.15,1.15-.86,2.01,13.79,55.75,28.16,112.94,42.53,171.56,2.87,11.49,4.31,22.99,4.02,34.48,0,13.22-7.47,16.67-20.12,17.82-25.86,2.01-53.16,2.59-82.48,1.15-27.01-1.44-34.77-9.77-39.94-36.21-2.59-13.51-11.78-61.21-27.3-143.4,0-.86-1.15-1.72-2.01-1.72h-12.93c-.57,0-.86.29-.86.86h0v150.01c0,4.02-.29,8.33-1.44,13.22-2.3,12.36-10.63,14.08-21.84,14.94-38.51,2.87-70.12,2.3-95.12-1.72-12.64-2.01-13.51-22.42-13.79-33.05-1.44-171.85-1.44-344.85,0-519.57,0-13.51.86-32.19,18.97-33.34,43.11-2.87,91.67-3.74,145.98-3.45,24.43,0,49.14,1.72,74.14,4.02,32.47,3.16,55.46,13.22,64.08,47.42,4.31,16.67,6.61,29.6,7.47,38.8,3.74,55.75,4.31,113.22,2.01,172.71-.57,15.81-2.01,30.17-3.74,43.68-3.74,25.29-11.21,49.43-36.5,59.49l-.29.29ZM4984.5,1892.5v98.57c0,3.74,2.87,6.9,6.61,6.9h29.89c5.46,0,10.06-10.92,10.06-24.71v-62.65c0-13.79-4.31-24.71-9.77-24.71s0,0,0,0h-29.89c-3.74,0-6.9,2.87-6.9,6.9v-.29Z"/>
    <path class="cls-19" d="M2381.49,2132.75c.29,1.44,1.44,2.3,2.87,2.3h72.71c3.16,0,6.03,1.72,7.47,4.6,1.72,3.16,2.59,6.61,2.87,10.63,1.72,39.37,1.72,90.81,0,154.32,0,10.06-4.31,17.24-12.36,21.84-1.15.57-2.3,1.15-3.45,1.15-12.64,1.15-26.44,2.01-41.38,2.01h-94.83c-22.41,0-42.24-1.15-59.2-2.87-14.94-1.72-15.23-21.84-15.52-33.91-1.72-167.54-1.72-340.25,0-517.84,0-4.6.29-9.77,1.15-14.94,2.3-16.96,8.33-18.97,23.56-20.12,34.48-3.16,67.82-2.87,100.01.86,11.21,1.15,14.37,13.22,14.37,23.56v357.2c0,4.31.29,8.33,1.15,11.49l.57-.29Z"/>
    <path class="cls-21" d="M2654.2,2181.6c3.74,0,7.76-.29,11.49-1.15,3.45-.57,6.03-3.16,6.9-6.32.86-2.87,1.15-6.61,1.15-11.21v-396c0-12.36,2.01-25.58,16.95-27.01,39.37-4.02,74.43-3.74,105.47.86,10.92,1.44,13.22,17.24,13.51,27.59,1.72,104.6,2.01,221.85,1.44,351.17,0,26.44-1.44,53.74-4.31,82.19-4.89,52.59-17.82,108.91-75.87,125.58-25.29,7.18-49.43,8.33-77.3,8.33s-52.01-1.15-77.3-8.33c-57.76-16.38-70.98-72.99-75.87-125.58-2.59-28.45-4.02-55.75-4.31-82.19-.57-129.6,0-246.57,1.44-351.17,0-10.35,2.59-26.15,13.51-27.59,31.04-4.6,66.38-4.89,105.47-.86,14.94,1.44,16.95,14.66,16.95,27.01v396c0,4.6.29,8.33,1.15,11.21.86,3.45,3.45,5.75,6.9,6.61,4.02.86,7.76,1.15,11.49,1.15l1.15-.29Z"/>
    <path class="cls-31" d="M3473.5,2033.6h0c4.02,18.97,22.42,102.88,55.18,252.6,1.72,8.05,4.02,24.43,0,33.91-2.59,5.46-8.62,7.18-14.37,7.76-33.91,3.16-67.82,3.16-101.44,0-19.83-2.01-24.71-19.25-27.88-36.21-12.36-65.23-25.58-136.21-39.66-213.23,0,0,0-.29-.57-.29s-.29,0-.29.29v227.31c0,8.33-3.45,19.54-12.93,20.98-31.04,4.31-65.52,4.6-104.03.86-16.67-1.44-18.68-13.79-18.97-29.02-1.72-85.06-1.72-164.38-1.72-264.96s0-179.89,1.72-264.67c.29-14.94,2.3-27.59,18.97-29.02,38.51-3.74,73.28-3.45,104.03.86,9.48,1.44,12.93,12.64,12.93,20.98,0,16.96.29,92.82,0,227.31,0,0,0,.29.29.29,0,0,.29,0,.57-.29h0c14.08-76.73,27.3-147.71,39.66-213.23,3.16-16.96,8.05-34.2,27.88-36.21,33.91-3.45,67.53-3.45,101.44,0,5.75.57,11.78,2.3,14.37,7.76,4.31,9.48,2.01,25.86,0,33.91-32.76,149.43-50.86,233.63-55.18,252.02h0v.29Z"/>
    <path class="cls-20" d="M5346.59,2132.75c.29,1.44,1.44,2.3,2.87,2.3h72.71c3.16,0,6.03,1.72,7.47,4.6,1.72,3.16,2.59,6.61,2.87,10.63,1.72,39.37,1.72,90.81,0,154.32,0,10.06-4.31,17.24-12.36,21.84-1.15.57-2.3,1.15-3.45,1.15-12.64,1.15-26.44,2.01-41.38,2.01h-94.83c-22.41,0-42.24-1.15-59.2-2.87-14.94-1.72-15.23-21.84-15.52-33.91-1.72-167.54-1.72-340.25,0-517.84,0-4.6.29-9.77,1.15-14.94,2.3-16.96,8.33-18.97,23.56-20.12,34.48-3.16,67.82-2.87,100.01.86,11.21,1.15,14.37,13.22,14.37,23.56v357.2c0,4.31.29,8.33,1.15,11.49l.57-.29Z"/>
    <path class="cls-23" d="M3704.26,1976.13c.57,0,.86,0,.86-.57,11.21-107.48,18.39-175.58,21.27-204.32.86-7.47,2.01-14.08,3.74-20.4,1.15-4.02,4.02-6.9,8.05-8.33,6.03-2.01,13.22-3.45,20.98-3.74,33.05-1.72,63.8-1.15,92.53,2.01,15.23,1.72,16.38,14.94,15.23,27.59-.86,10.06-3.74,23.85-8.05,41.67-21.55,85.06-49.14,194.26-82.76,327.32-.57,2.01-.86,4.02-.86,6.32,0,40.23-.29,91.1-1.15,152.02,0,7.18-.86,14.08-2.59,20.4-2.87,11.78-14.37,11.78-27.3,12.93-13.79,1.15-27.01,1.72-40.23,1.72s-26.44-.57-39.94-1.72c-12.64-1.15-24.14-1.15-27.3-12.93-1.72-6.32-2.59-13.22-2.59-20.4-.86-60.92-1.15-111.79-1.15-152.02,0-2.01,0-4.31-.86-6.32-33.62-133.05-60.92-242.25-82.48-327.6-4.31-17.53-7.18-31.61-8.05-41.67-1.15-12.64,0-25.86,15.23-27.59,28.74-3.16,59.77-3.74,92.53-2.01,7.76.57,14.66,1.72,20.98,3.74,3.74,1.44,6.9,4.31,8.05,8.33,1.72,6.03,2.87,12.93,3.74,20.4,2.87,28.45,9.77,96.56,20.98,204.32,0,.29.29.57.86.57l.29.29Z"/>
    <path class="cls-15" d="M4231.87,1737.9c17.82,0,32.76.86,45.4,2.59,6.61.86,10.92,3.74,12.64,8.62,3.16,8.62,3.74,18.39,4.6,32.19,9.48,116.39,18.1,226.16,26.44,329.33,0,.57.29.86.86.86h.86c2.87-75.58,7.47-190.24,14.08-344.27.29-8.62,2.3-21.84,12.07-25,5.75-2.01,11.78-3.16,18.97-3.45,38.22-1.72,66.96-.86,86.5,2.3,8.33,1.44,12.64,6.9,13.22,16.38.57,9.77.57,20.69,0,32.76-20.12,273.58-32.47,444.56-37.65,512.96-.57,8.62-4.31,23.56-13.51,26.15-2.3.57-4.31.86-6.61,1.15-62.93,1.72-110.35,1.44-141.67-.29-12.07-.57-16.38-16.67-16.95-26.15-6.03-104.89-12.07-216.1-18.68-333.93,0-.57-.29-.86-.86-.86s-.86.29-.86.86c-6.61,117.82-12.64,229.04-18.68,333.93-.57,9.48-4.89,25.29-16.95,26.15-31.32,1.72-78.74,2.01-141.67.29-2.3,0-4.6-.29-6.61-1.15-9.2-2.59-12.64-17.82-13.51-26.15-4.89-68.39-17.53-239.38-37.65-512.96-.86-11.78-.86-22.7,0-32.76.57-9.77,5.17-15.23,13.22-16.38,19.54-3.16,48.28-3.74,86.5-2.3,6.9.29,13.22,1.44,18.97,3.45,9.77,3.16,11.49,16.38,12.07,25,6.61,153.74,11.21,268.41,14.08,344.27h.86c.29,0,.86-.29.86-.86,8.33-103.17,17.24-212.94,26.44-329.33,1.15-13.51,1.44-23.56,4.6-32.19,1.72-4.89,6.03-7.76,12.64-8.62,12.64-1.72,27.88-2.59,45.4-2.59h.57Z"/>
    <path class="cls-25" d="M5777.93,2033.89c0,58.91-1.72,112.08-5.17,159.78-2.3,30.75-5.17,60.92-15.81,89.09-12.64,32.47-41.67,40.81-73.28,43.97-18.68,2.01-36.78,2.87-54.6,2.87-57.19,0-98.57.57-148.28-2.59-4.02,0-7.47-2.3-10.63-6.03-2.59-3.16-4.31-8.91-4.89-16.96-.57-6.03-.86-31.32-1.44-76.15-.29-48.57-.57-113.22-.57-194.26s0-145.7.57-194.26c.29-44.83.86-70.12,1.44-76.15.86-8.33,2.3-13.79,4.89-16.96,3.16-3.74,6.61-5.75,10.63-6.03,49.72-3.16,91.1-2.87,148.28-2.59,17.82,0,36.21,1.15,54.6,2.87,31.9,3.16,60.92,11.49,73.28,43.97,10.92,28.16,13.79,58.34,16.09,89.09,3.45,47.7,5.17,100.87,5.17,159.78l-.29.57ZM5600.91,1895.38v276.74c0,5.17,4.31,9.48,9.48,9.48h13.22c9.2,0,16.38-10.06,16.38-22.42h0v-250.88c0-12.36-7.47-22.42-16.38-22.42h-13.22c-5.17,0-9.48,4.31-9.48,9.48h0Z"/>
    <path class="cls-29" d="M2663.69,2409.77c-.57,0-.86.57-.86.86v202.02c0,.86.57,1.44,1.44,1.44h44.83c1.15,0,1.72-.86,1.72-1.72v-37.36c0-1.44,1.15-2.59,2.59-2.59h51.44c.86,0,1.72.86,1.72,1.72h0v44.54c0,29.31-24.14,36.21-49.43,36.21h-62.65c-16.95,0-37.07-4.31-44.83-20.98-2.3-4.6-3.16-14.37-2.87-29.6v-187.94c0-12.93,1.15-21.84,3.16-26.15,7.47-16.09,26.15-20.98,43.11-21.27h66.67c23.56,0,46.55,9.2,46.84,36.5v39.66c0,1.44-1.44,2.87-2.87,2.87h-50.29c-1.44,0-2.59-1.15-2.59-2.59v-34.2c0-.86-.86-1.72-1.72-1.72h-45.69l.29.29Z"/>
    <path class="cls-9" d="M3885.88,2654.9c-20.69,0-37.36-16.67-37.36-37.36v-210.64c0-20.98,17.53-37.93,39.08-37.93h81.9c21.55,0,39.08,16.96,39.08,37.93v210.64c0,20.69-16.67,37.36-37.36,37.36h-85.35ZM3952.84,2411.5c0-.86-.86-1.72-1.72-1.72h-44.83c-.86,0-1.72.86-1.72,1.72h0v201.16c0,.86.86,1.72,1.72,1.72h44.83c.86,0,1.72-.86,1.72-1.72v-201.16Z"/>
    <path class="cls-30" d="M4713.8,2654.9c-20.69,0-37.36-16.67-37.36-37.36h0v-210.64c0-20.98,17.53-37.93,39.08-37.93h81.9c21.55,0,39.08,16.96,39.08,37.93h0v210.36c0,20.69-16.67,37.36-37.36,37.36h-85.35v.29ZM4780.47,2411.5c0-.86-.86-1.72-1.72-1.72h-44.83c-.86,0-1.72.86-1.72,1.72v201.45c0,.86.86,1.72,1.72,1.72h44.83c.86,0,1.72-.86,1.72-1.72v-201.45Z"/>
    <path class="cls-22" d="M5701.21,2409.77h-43.97c-1.15,0-2.01.86-2.01,2.01h0v77.59c0,1.44,1.15,2.59,2.59,2.59h54.6c22.99,0,45.4,7.18,46.84,34.2v92.53c0,28.16-23.28,36.21-48.28,36.21h-66.67c-22.7-.57-44.26-8.62-45.12-34.77v-45.4c0-1.15,1.15-2.3,2.3-2.3h51.15c1.15,0,2.3.86,2.3,2.3v37.93c0,.86.86,1.72,1.72,1.72h44.83c.86,0,1.72-.86,1.72-1.72h0v-78.16c0-1.15-.86-2.3-2.01-2.3h-60.06c-20.98-.29-41.09-6.03-41.67-30.75-.29-22.7-.57-54.31,0-95.41,0-27.59,22.41-36.5,45.98-37.07h65.52c23.56,0,47.42,8.05,47.99,35.92.57,18.1.57,31.9,0,41.38,0,1.15-.86,2.01-2.01,2.01h-50.29c-1.72,0-3.16-1.44-3.16-3.16v-33.34c0-1.15-.86-2.3-2.3-2.3v.29Z"/>
    <path class="cls-10" d="M2389.53,2614.96v35.06c0,1.44-1.15,2.87-2.87,2.87h-104.03c-1.44,0-2.87-1.15-2.87-2.87h0v-275.88c0-1.44,1.15-2.87,2.87-2.87h50c1.44,0,2.87,1.15,2.87,2.87v235.07c0,1.44,1.15,2.87,2.87,2.87h48.57c1.44,0,2.87,1.15,2.87,2.87h-.29Z"/>
    <path class="cls-17" d="M2487.81,2614.38h22.7c.86,0,1.44-.57,1.44-1.44h0v-238.23c0-1.72,1.44-3.16,3.16-3.16h50c1.44,0,2.59,1.15,2.59,2.59h0v245.13c0,42.24-50,35.92-79.89,35.92s-79.89,6.03-79.89-35.92v-245.13c0-1.44,1.15-2.59,2.59-2.59h50c1.72,0,3.16,1.44,3.16,3.16v238.23c0,.86.57,1.44,1.44,1.44h22.7Z"/>
    <path class="cls-18" d="M2858.81,2490.53s0,.29.29.29h.29l51.44-116.39c.86-1.72,2.59-2.87,4.6-2.87h52.88c1.44,0,2.3,1.15,2.3,2.3v.86l-51.73,116.96c0,.57,0,1.15.57,1.44h.29c22.42,1.15,42.53,12.36,42.82,37.65,0,34.2.29,74.43,0,120.7,0,.86-.86,1.72-1.72,1.72h-51.44c-1.44,0-2.59-1.15-2.59-2.59h0v-115.81c0-1.15-1.15-2.3-2.3-2.3h-44.54c-.86,0-1.44.57-1.44,1.44v117.25c0,1.15-.86,2.01-2.01,2.01h-51.44c-1.15,0-2.3-1.15-2.3-2.3v-276.74c0-1.44,1.15-2.59,2.59-2.59h50.29c1.44,0,2.87,1.15,2.87,2.87v116.39l.29-.29Z"/>
    <path class="cls-7" d="M3218.31,2494.55l-31.32,155.76c-.29,1.44-1.72,2.59-3.16,2.59h-56.61c-1.44,0-2.59-.86-2.87-2.3l-60.92-275.88c-.29-1.44.57-3.16,2.3-3.45h52.01c1.72,0,3.16,1.15,3.45,2.87l33.34,169.26c0,.29,0,.57.57.57s.57,0,.57-.57h0l34.2-170.12c0-1.15,1.15-2.01,2.59-2.01h54.89c1.44,0,2.87,1.15,3.16,2.59l33.34,169.55c0,.29.29.57.57.57,0,0,.29,0,.57-.57l33.91-169.84c0-1.44,1.44-2.3,2.87-2.3h52.88c1.44,0,2.3,1.15,2.3,2.3s0,.29,0,.57l-61.21,276.16c-.29,1.44-1.72,2.59-3.16,2.59h-55.46c-1.72,0-2.87-1.15-3.45-2.59l-34.48-155.76s-.29-.29-.57-.29c0,0-.29,0-.29.29h0Z"/>
    <rect class="cls-8" x="3399.64" y="2371.27" width="55.75" height="281.62"/>
    <path class="cls-2" d="M3551.66,2652.89h-25c-1.72,0-2.87-1.44-2.87-3.16v-236.51c.29-.86-.57-1.72-1.44-1.72h-39.66c-1.72,0-3.16-1.44-3.16-3.16h0v-34.2c0-1.72,1.44-3.16,3.16-3.16h138.51c1.72,0,3.16,1.44,3.16,3.16h0v34.2c0,1.72-1.44,2.87-2.87,2.87h-39.66c-.86,0-1.72.86-1.72,1.72h0v236.51c0,1.72-1.15,2.87-2.87,3.16h-25l-.57.29Z"/>
    <path class="cls-26" d="M3726.96,2489.66h22.42c1.15,0,1.72-.86,1.72-1.72h0v-113.8c0-1.44,1.15-2.59,2.59-2.59h50.58c1.44,0,2.59,1.15,2.59,2.59v276.16c0,1.72-1.44,2.87-2.87,2.87h-50.29c-1.44,0-2.59-1.15-2.59-2.59h0v-118.97c0-.57-.57-1.15-1.15-1.15h-46.27c-.57,0-.86.57-.86,1.15v118.97c0,1.44-1.15,2.59-2.59,2.59h-50.29c-1.72,0-2.87-1.44-2.87-2.87h0v-276.16c0-1.44,1.15-2.59,2.59-2.59h50.58c1.44,0,2.59,1.15,2.59,2.59v113.8c0,1.15.86,2.01,1.72,1.72h22.42,0Z"/>
    <path class="cls-24" d="M4127.56,2655.19c-29.89,0-79.89,6.03-79.89-35.92v-245.13c0-1.44,1.15-2.59,2.59-2.59h50c1.72,0,3.16,1.44,3.16,3.16v238.23c0,.86.57,1.44,1.44,1.44h45.4c.86,0,1.44-.57,1.44-1.44s0,0,0,0v-238.23c0-1.72,1.44-3.16,3.16-3.16h50c1.44,0,2.59,1.15,2.59,2.59v245.13c0,42.24-50,36.21-79.89,36.21v-.29Z"/>
    <path class="cls-12" d="M4300.56,2371.27h69.26c1.72,0,3.16,1.44,3.16,3.16v34.2c0,1.72-1.44,2.87-3.16,2.87h-39.66c-.86,0-1.72.86-1.72,1.72h0v236.51c0,1.72-1.15,2.87-2.87,3.16h-50c-1.72,0-2.87-1.44-2.87-3.16v-236.51c.29-.86-.57-1.72-1.44-1.72h-39.66c-1.72,0-3.16-1.44-3.16-3.16h0v-34.2c0-1.72,1.44-3.16,3.16-3.16h69.26l-.29.29Z"/>
    <path class="cls-11" d="M4624.71,2512.08h0v.29c10.06,7.47,14.94,16.67,15.23,27.87.57,37.36.57,62.93,0,76.73-.86,28.45-25.29,35.63-49.14,35.63h-107.48c-1.72,0-2.87-1.44-2.87-2.87v-275.88c0-1.72,1.44-2.87,2.87-2.87h107.48c23.85,0,48.28,7.18,49.14,35.63.29,13.79.29,39.37,0,76.73,0,11.21-5.17,20.4-15.23,27.87v.29h0v.58ZM4584.48,2413.51c0-.86-.57-1.44-1.44-1.44h-45.4c-.86,0-1.44.57-1.44,1.44v77.02c0,.86.57,1.44,1.44,1.44h45.4c.86,0,1.44-.57,1.44-1.44v-77.02ZM4584.48,2533.92c0-.86-.57-1.44-1.44-1.44h-45.4c-.86,0-1.44.57-1.44,1.44v76.73c0,.86.57,1.44,1.44,1.44h45.4c.86,0,1.44-.57,1.44-1.44v-76.73Z"/>
    <path class="cls-5" d="M4935.07,2542.25s-.57-.29-.86,0c0,0-.29,0-.29.57v108.34c0,1.15-1.15,2.3-2.3,2.3h-50.58c-1.72,0-2.87-1.44-2.87-2.87v-276.16c0-1.44,1.15-2.59,2.59-2.59h102.02c11.49,0,21.55,2.3,30.17,6.9,14.37,7.18,16.96,20.12,16.96,36.78v81.61c0,22.7-18.1,35.06-38.51,35.06-.86,0-1.44.57-1.44,1.44v.57l45.69,116.39c.57,1.15,0,2.3-1.15,2.87h-57.47c-1.15,0-2.01-.57-2.3-1.72l-39.66-109.2v-.29ZM4974.15,2413.51c0-.86-.57-1.44-1.44-1.44h-37.36c-.86,0-1.44.57-1.44,1.44h0v76.44c0,.86.57,1.44,1.44,1.44h37.36c.86,0,1.44-.57,1.44-1.44v-76.44Z"/>
    <path class="cls-6" d="M5071.29,2374.71c0-1.72,1.44-3.16,3.16-3.16h115.52c22.7,0,41.38,16.09,41.38,36.5h0l.29,208.06c0,20.4-18.39,36.78-41.09,36.78h-115.52c-1.72,0-3.16-1.15-3.45-3.16h0l-.57-275.01h.29ZM5175.6,2413.51c0-.86-.57-1.44-1.44-1.44h-45.4c-.86,0-1.44.57-1.44,1.44h0v197.14c0,.86.57,1.44,1.44,1.44h45.4c.86,0,1.44-.57,1.44-1.44v-197.14Z"/>
    <path class="cls-27" d="M5331.65,2489.66h46.27c1.15,0,2.3.86,2.3,2.3v35.92c0,1.15-.86,2.3-2.3,2.3h-46.27c-1.15,0-2.3.86-2.3,2.3h0v77.59c0,1.15.86,2.3,2.3,2.3h46.27c1.15,0,2.3.86,2.3,2.3v36.5c0,1.15-.86,2.3-2.3,2.3h-101.73c-1.15,0-2.3-.86-2.3-2.3h0v-277.31c0-1.15.86-2.3,2.3-2.3h101.73c1.15,0,2.3.86,2.3,2.3v35.92c0,1.15-.86,2.3-2.3,2.3h-46.27c-1.15,0-2.3.86-2.3,2.3h0v73.85c0,1.15.86,2.3,2.3,2.3h0v-.86Z"/>
    <path class="cls-14" d="M5473.32,2541.97s-.57-.29-.86,0c0,0-.29,0-.29.57v108.34c0,1.15-1.15,2.3-2.3,2.3h-50.58c-1.72,0-2.87-1.44-2.87-2.87h0v-276.16c0-1.44,1.15-2.59,2.59-2.59h102.02c11.49,0,21.55,2.3,30.17,6.61,14.37,7.47,16.96,20.12,16.96,36.78v81.61c0,22.7-18.1,35.06-38.51,35.06-.86,0-1.44.57-1.44,1.44v.57l45.69,116.39c.57,1.15,0,2.3-1.15,2.87h-57.19c-1.15,0-2.01-.57-2.3-1.72l-39.66-109.2h-.29ZM5512.4,2413.51c0-.86-.57-1.44-1.44-1.44h-37.36c-.86,0-1.44.57-1.44,1.44v76.44c0,.86.57,1.44,1.44,1.44h37.36c.86,0,1.44-.57,1.44-1.44v-76.44Z"/>
  </g>
</svg>